<mxfile host="app.diagrams.net" modified="2022-12-18T22:29:41.656Z" agent="5.0 (Macintosh; Intel Mac OS X 10_15_7) AppleWebKit/605.1.15 (KHTML, like Gecko) Version/16.1 Safari/605.1.15" version="20.7.4" etag="gtraW1KFSup_XTZ1BGSg" type="github">
  <diagram id="WR7QrPitB6mib_1xxAZe" name="Страница 1">
    <mxGraphModel dx="1450" dy="707" grid="0" gridSize="10" guides="1" tooltips="1" connect="1" arrows="1" fold="1" page="0" pageScale="1" pageWidth="827" pageHeight="1169" math="0" shadow="0">
      <root>
        <mxCell id="0" />
        <mxCell id="1" parent="0" />
        <mxCell id="zEj0PHnnHHKdDakvJn7f-46" style="edgeStyle=orthogonalEdgeStyle;rounded=0;orthogonalLoop=1;jettySize=auto;html=1;exitX=0;exitY=0.5;exitDx=0;exitDy=0;entryX=-0.003;entryY=0.936;entryDx=0;entryDy=0;entryPerimeter=0;fontSize=10;endArrow=none;endFill=0;startArrow=classic;startFill=1;" edge="1" parent="1" source="zEj0PHnnHHKdDakvJn7f-2" target="zEj0PHnnHHKdDakvJn7f-16">
          <mxGeometry relative="1" as="geometry">
            <Array as="points">
              <mxPoint x="-181" y="47" />
              <mxPoint x="-181" y="689" />
            </Array>
          </mxGeometry>
        </mxCell>
        <mxCell id="zEj0PHnnHHKdDakvJn7f-47" style="edgeStyle=orthogonalEdgeStyle;rounded=0;orthogonalLoop=1;jettySize=auto;html=1;exitX=1;exitY=0.5;exitDx=0;exitDy=0;entryX=1.003;entryY=0.936;entryDx=0;entryDy=0;entryPerimeter=0;fontSize=10;startArrow=none;startFill=0;endArrow=classic;endFill=1;" edge="1" parent="1" source="zEj0PHnnHHKdDakvJn7f-2" target="zEj0PHnnHHKdDakvJn7f-16">
          <mxGeometry relative="1" as="geometry">
            <Array as="points">
              <mxPoint x="848" y="47" />
              <mxPoint x="848" y="689" />
            </Array>
          </mxGeometry>
        </mxCell>
        <mxCell id="zEj0PHnnHHKdDakvJn7f-2" value="&lt;font size=&quot;1&quot;&gt;Просмотр и редактирование таблицы расписания&lt;/font&gt;" style="rounded=0;whiteSpace=wrap;html=1;fontSize=8;" vertex="1" parent="1">
          <mxGeometry x="364" y="27" width="120" height="40" as="geometry" />
        </mxCell>
        <mxCell id="zEj0PHnnHHKdDakvJn7f-4" value="&lt;font style=&quot;font-size: 10px;&quot;&gt;Просмотр и редактирование списка контактов&lt;/font&gt;" style="rounded=0;whiteSpace=wrap;html=1;fontSize=8;" vertex="1" parent="1">
          <mxGeometry x="145" y="127" width="120" height="50" as="geometry" />
        </mxCell>
        <mxCell id="zEj0PHnnHHKdDakvJn7f-5" style="edgeStyle=orthogonalEdgeStyle;rounded=0;orthogonalLoop=1;jettySize=auto;html=1;exitX=1;exitY=0.5;exitDx=0;exitDy=0;entryX=0;entryY=0.5;entryDx=0;entryDy=0;fontSize=10;endArrow=classic;endFill=1;" edge="1" parent="1" source="zEj0PHnnHHKdDakvJn7f-6" target="zEj0PHnnHHKdDakvJn7f-7">
          <mxGeometry relative="1" as="geometry" />
        </mxCell>
        <mxCell id="zEj0PHnnHHKdDakvJn7f-6" value="&lt;span style=&quot;font-size: 10px;&quot;&gt;Просмотр и редактирование списка задач&lt;/span&gt;" style="rounded=0;whiteSpace=wrap;html=1;fontSize=8;" vertex="1" parent="1">
          <mxGeometry x="319" y="127" width="120" height="50" as="geometry" />
        </mxCell>
        <mxCell id="zEj0PHnnHHKdDakvJn7f-7" value="&lt;font style=&quot;font-size: 10px;&quot;&gt;Форма управлния календарем&lt;/font&gt;" style="rounded=0;whiteSpace=wrap;html=1;fontSize=8;" vertex="1" parent="1">
          <mxGeometry x="530" y="127" width="120" height="50" as="geometry" />
        </mxCell>
        <mxCell id="zEj0PHnnHHKdDakvJn7f-9" value="&lt;font style=&quot;font-size: 10px;&quot;&gt;Форма добавления элемента в таблицу расписания&lt;/font&gt;" style="rounded=0;whiteSpace=wrap;html=1;fontSize=8;" vertex="1" parent="1">
          <mxGeometry x="690" y="127" width="120" height="50" as="geometry" />
        </mxCell>
        <mxCell id="zEj0PHnnHHKdDakvJn7f-10" value="" style="endArrow=classic;html=1;rounded=0;fontSize=10;exitX=0.192;exitY=1.025;exitDx=0;exitDy=0;entryX=1;entryY=0;entryDx=0;entryDy=0;exitPerimeter=0;" edge="1" parent="1" source="zEj0PHnnHHKdDakvJn7f-2" target="zEj0PHnnHHKdDakvJn7f-4">
          <mxGeometry width="50" height="50" relative="1" as="geometry">
            <mxPoint x="346" y="157" as="sourcePoint" />
            <mxPoint x="127" y="57" as="targetPoint" />
          </mxGeometry>
        </mxCell>
        <mxCell id="zEj0PHnnHHKdDakvJn7f-11" value="" style="endArrow=classic;html=1;rounded=0;fontSize=10;exitX=0.433;exitY=1;exitDx=0;exitDy=0;entryX=0.7;entryY=0.02;entryDx=0;entryDy=0;entryPerimeter=0;exitPerimeter=0;" edge="1" parent="1" source="zEj0PHnnHHKdDakvJn7f-2" target="zEj0PHnnHHKdDakvJn7f-6">
          <mxGeometry width="50" height="50" relative="1" as="geometry">
            <mxPoint x="374" y="77" as="sourcePoint" />
            <mxPoint x="182" y="137" as="targetPoint" />
          </mxGeometry>
        </mxCell>
        <mxCell id="zEj0PHnnHHKdDakvJn7f-12" value="" style="endArrow=classic;html=1;rounded=0;fontSize=10;exitX=0.7;exitY=1.025;exitDx=0;exitDy=0;entryX=0.15;entryY=0;entryDx=0;entryDy=0;exitPerimeter=0;entryPerimeter=0;" edge="1" parent="1" source="zEj0PHnnHHKdDakvJn7f-2" target="zEj0PHnnHHKdDakvJn7f-7">
          <mxGeometry width="50" height="50" relative="1" as="geometry">
            <mxPoint x="384" y="87" as="sourcePoint" />
            <mxPoint x="192" y="147" as="targetPoint" />
          </mxGeometry>
        </mxCell>
        <mxCell id="zEj0PHnnHHKdDakvJn7f-13" value="" style="endArrow=classic;html=1;rounded=0;fontSize=10;exitX=1;exitY=1;exitDx=0;exitDy=0;entryX=0;entryY=0;entryDx=0;entryDy=0;" edge="1" parent="1" source="zEj0PHnnHHKdDakvJn7f-2" target="zEj0PHnnHHKdDakvJn7f-9">
          <mxGeometry width="50" height="50" relative="1" as="geometry">
            <mxPoint x="394" y="97" as="sourcePoint" />
            <mxPoint x="202" y="157" as="targetPoint" />
          </mxGeometry>
        </mxCell>
        <mxCell id="zEj0PHnnHHKdDakvJn7f-16" value="&lt;font style=&quot;font-size: 12px;&quot;&gt;База данных&lt;/font&gt;" style="rounded=0;whiteSpace=wrap;html=1;fontSize=10;" vertex="1" parent="1">
          <mxGeometry x="225" y="572" width="316" height="125" as="geometry" />
        </mxCell>
        <mxCell id="zEj0PHnnHHKdDakvJn7f-17" value="&lt;font style=&quot;font-size: 10px;&quot;&gt;Форма добавления задачи&lt;/font&gt;" style="rounded=0;whiteSpace=wrap;html=1;fontSize=12;" vertex="1" parent="1">
          <mxGeometry x="570" y="290" width="115" height="53" as="geometry" />
        </mxCell>
        <mxCell id="zEj0PHnnHHKdDakvJn7f-18" value="&lt;font style=&quot;font-size: 10px;&quot;&gt;Форма добавления контакта&lt;/font&gt;" style="rounded=0;whiteSpace=wrap;html=1;fontSize=12;" vertex="1" parent="1">
          <mxGeometry x="27" y="285" width="111" height="54" as="geometry" />
        </mxCell>
        <mxCell id="zEj0PHnnHHKdDakvJn7f-19" value="Сохранить данные" style="text;html=1;align=center;verticalAlign=middle;resizable=0;points=[];autosize=1;strokeColor=none;fillColor=none;fontSize=10;" vertex="1" parent="1">
          <mxGeometry x="500" y="27" width="107" height="24" as="geometry" />
        </mxCell>
        <mxCell id="zEj0PHnnHHKdDakvJn7f-20" value="Вернуть данные" style="text;html=1;align=center;verticalAlign=middle;resizable=0;points=[];autosize=1;strokeColor=none;fillColor=none;fontSize=10;" vertex="1" parent="1">
          <mxGeometry x="223" y="25" width="95" height="24" as="geometry" />
        </mxCell>
        <mxCell id="zEj0PHnnHHKdDakvJn7f-21" value="" style="endArrow=classic;html=1;rounded=0;fontSize=10;exitX=0.75;exitY=1;exitDx=0;exitDy=0;entryX=0;entryY=0;entryDx=0;entryDy=0;" edge="1" parent="1" source="zEj0PHnnHHKdDakvJn7f-6" target="zEj0PHnnHHKdDakvJn7f-17">
          <mxGeometry width="50" height="50" relative="1" as="geometry">
            <mxPoint x="404" y="77" as="sourcePoint" />
            <mxPoint x="353" y="138" as="targetPoint" />
          </mxGeometry>
        </mxCell>
        <mxCell id="zEj0PHnnHHKdDakvJn7f-22" value="" style="endArrow=classic;html=1;rounded=0;fontSize=10;exitX=0.433;exitY=1.02;exitDx=0;exitDy=0;entryX=0.067;entryY=-0.003;entryDx=0;entryDy=0;entryPerimeter=0;exitPerimeter=0;" edge="1" parent="1" source="zEj0PHnnHHKdDakvJn7f-4" target="zEj0PHnnHHKdDakvJn7f-18">
          <mxGeometry width="50" height="50" relative="1" as="geometry">
            <mxPoint x="414" y="87" as="sourcePoint" />
            <mxPoint x="363" y="148" as="targetPoint" />
          </mxGeometry>
        </mxCell>
        <mxCell id="zEj0PHnnHHKdDakvJn7f-23" value="" style="endArrow=classic;html=1;rounded=0;fontSize=10;entryX=0;entryY=0;entryDx=0;entryDy=0;" edge="1" parent="1" source="zEj0PHnnHHKdDakvJn7f-18" target="zEj0PHnnHHKdDakvJn7f-16">
          <mxGeometry width="50" height="50" relative="1" as="geometry">
            <mxPoint x="424" y="97" as="sourcePoint" />
            <mxPoint x="224" y="598" as="targetPoint" />
          </mxGeometry>
        </mxCell>
        <mxCell id="zEj0PHnnHHKdDakvJn7f-24" value="" style="endArrow=classic;html=1;rounded=0;fontSize=10;entryX=0.927;entryY=0;entryDx=0;entryDy=0;entryPerimeter=0;" edge="1" parent="1" source="zEj0PHnnHHKdDakvJn7f-17" target="zEj0PHnnHHKdDakvJn7f-16">
          <mxGeometry width="50" height="50" relative="1" as="geometry">
            <mxPoint x="434" y="107" as="sourcePoint" />
            <mxPoint x="383" y="168" as="targetPoint" />
          </mxGeometry>
        </mxCell>
        <mxCell id="zEj0PHnnHHKdDakvJn7f-45" style="edgeStyle=orthogonalEdgeStyle;rounded=0;orthogonalLoop=1;jettySize=auto;html=1;exitX=0;exitY=0.5;exitDx=0;exitDy=0;fontSize=10;endArrow=classic;endFill=1;entryX=-0.001;entryY=0.769;entryDx=0;entryDy=0;entryPerimeter=0;" edge="1" parent="1" source="zEj0PHnnHHKdDakvJn7f-27" target="zEj0PHnnHHKdDakvJn7f-16">
          <mxGeometry relative="1" as="geometry">
            <mxPoint x="160" y="672" as="targetPoint" />
            <Array as="points">
              <mxPoint x="-157" y="152" />
              <mxPoint x="-157" y="669" />
              <mxPoint x="160" y="669" />
            </Array>
          </mxGeometry>
        </mxCell>
        <mxCell id="zEj0PHnnHHKdDakvJn7f-27" value="&lt;font size=&quot;1&quot;&gt;Форма редактирования выбраннтого элемента таблицы расписания&lt;/font&gt;" style="rounded=0;whiteSpace=wrap;html=1;fontSize=8;" vertex="1" parent="1">
          <mxGeometry x="-34" y="127" width="120" height="50" as="geometry" />
        </mxCell>
        <mxCell id="zEj0PHnnHHKdDakvJn7f-28" value="" style="endArrow=classic;html=1;rounded=0;fontSize=10;exitX=0;exitY=1;exitDx=0;exitDy=0;entryX=1;entryY=0;entryDx=0;entryDy=0;" edge="1" parent="1" source="zEj0PHnnHHKdDakvJn7f-2" target="zEj0PHnnHHKdDakvJn7f-27">
          <mxGeometry width="50" height="50" relative="1" as="geometry">
            <mxPoint x="397.03999999999996" y="78" as="sourcePoint" />
            <mxPoint x="215" y="137" as="targetPoint" />
          </mxGeometry>
        </mxCell>
        <mxCell id="zEj0PHnnHHKdDakvJn7f-29" value="Форма редактирования выбранного элемента списка контактов" style="rounded=0;whiteSpace=wrap;html=1;fontSize=10;" vertex="1" parent="1">
          <mxGeometry x="-109" y="284" width="116" height="55" as="geometry" />
        </mxCell>
        <mxCell id="zEj0PHnnHHKdDakvJn7f-44" style="edgeStyle=orthogonalEdgeStyle;rounded=0;orthogonalLoop=1;jettySize=auto;html=1;exitX=0.5;exitY=1;exitDx=0;exitDy=0;entryX=0.794;entryY=0;entryDx=0;entryDy=0;entryPerimeter=0;fontSize=10;endArrow=classic;endFill=1;" edge="1" parent="1" source="zEj0PHnnHHKdDakvJn7f-31" target="zEj0PHnnHHKdDakvJn7f-16">
          <mxGeometry relative="1" as="geometry" />
        </mxCell>
        <mxCell id="zEj0PHnnHHKdDakvJn7f-31" value="Форма редактирования выбранного элемента списка задач" style="rounded=0;whiteSpace=wrap;html=1;fontSize=10;" vertex="1" parent="1">
          <mxGeometry x="418" y="290" width="116" height="55" as="geometry" />
        </mxCell>
        <mxCell id="zEj0PHnnHHKdDakvJn7f-32" value="" style="endArrow=classic;html=1;rounded=0;fontSize=10;exitX=0.5;exitY=1;exitDx=0;exitDy=0;" edge="1" parent="1" source="zEj0PHnnHHKdDakvJn7f-6" target="zEj0PHnnHHKdDakvJn7f-31">
          <mxGeometry width="50" height="50" relative="1" as="geometry">
            <mxPoint x="359" y="187" as="sourcePoint" />
            <mxPoint x="590" y="235" as="targetPoint" />
          </mxGeometry>
        </mxCell>
        <mxCell id="zEj0PHnnHHKdDakvJn7f-33" value="" style="endArrow=classic;html=1;rounded=0;fontSize=10;exitX=0.25;exitY=1;exitDx=0;exitDy=0;entryX=0.5;entryY=0;entryDx=0;entryDy=0;" edge="1" parent="1" source="zEj0PHnnHHKdDakvJn7f-4" target="zEj0PHnnHHKdDakvJn7f-29">
          <mxGeometry width="50" height="50" relative="1" as="geometry">
            <mxPoint x="369" y="197" as="sourcePoint" />
            <mxPoint x="600" y="245" as="targetPoint" />
          </mxGeometry>
        </mxCell>
        <mxCell id="zEj0PHnnHHKdDakvJn7f-35" value="" style="endArrow=classic;html=1;rounded=0;fontSize=10;exitX=0.612;exitY=1;exitDx=0;exitDy=0;exitPerimeter=0;entryX=0;entryY=0.25;entryDx=0;entryDy=0;" edge="1" parent="1" source="zEj0PHnnHHKdDakvJn7f-29" target="zEj0PHnnHHKdDakvJn7f-16">
          <mxGeometry width="50" height="50" relative="1" as="geometry">
            <mxPoint x="-30" y="460" as="sourcePoint" />
            <mxPoint x="223" y="638" as="targetPoint" />
          </mxGeometry>
        </mxCell>
        <mxCell id="zEj0PHnnHHKdDakvJn7f-36" value="" style="endArrow=classic;html=1;rounded=0;fontSize=10;exitX=0.875;exitY=1;exitDx=0;exitDy=0;entryX=1.003;entryY=0.128;entryDx=0;entryDy=0;exitPerimeter=0;entryPerimeter=0;" edge="1" parent="1" source="zEj0PHnnHHKdDakvJn7f-9" target="zEj0PHnnHHKdDakvJn7f-16">
          <mxGeometry width="50" height="50" relative="1" as="geometry">
            <mxPoint x="620" y="434" as="sourcePoint" />
            <mxPoint x="851" y="482" as="targetPoint" />
            <Array as="points">
              <mxPoint x="798" y="588" />
            </Array>
          </mxGeometry>
        </mxCell>
        <mxCell id="zEj0PHnnHHKdDakvJn7f-40" value="" style="endArrow=classic;html=1;rounded=0;fontSize=10;exitX=0.389;exitY=0.008;exitDx=0;exitDy=0;entryX=0.25;entryY=1;entryDx=0;entryDy=0;exitPerimeter=0;" edge="1" parent="1" source="zEj0PHnnHHKdDakvJn7f-16" target="zEj0PHnnHHKdDakvJn7f-6">
          <mxGeometry width="50" height="50" relative="1" as="geometry">
            <mxPoint x="332.9979999999999" y="610" as="sourcePoint" />
            <mxPoint x="340.09" y="217" as="targetPoint" />
          </mxGeometry>
        </mxCell>
        <mxCell id="zEj0PHnnHHKdDakvJn7f-41" value="" style="endArrow=classic;html=1;rounded=0;fontSize=10;exitX=0.075;exitY=1.02;exitDx=0;exitDy=0;exitPerimeter=0;entryX=0.323;entryY=0;entryDx=0;entryDy=0;entryPerimeter=0;" edge="1" parent="1" source="zEj0PHnnHHKdDakvJn7f-6" target="zEj0PHnnHHKdDakvJn7f-16">
          <mxGeometry width="50" height="50" relative="1" as="geometry">
            <mxPoint x="343.9079999999999" y="591" as="sourcePoint" />
            <mxPoint x="324" y="538" as="targetPoint" />
          </mxGeometry>
        </mxCell>
        <mxCell id="zEj0PHnnHHKdDakvJn7f-42" value="" style="endArrow=classic;html=1;rounded=0;fontSize=10;entryX=0.925;entryY=1;entryDx=0;entryDy=0;entryPerimeter=0;exitX=0.101;exitY=-0.008;exitDx=0;exitDy=0;exitPerimeter=0;" edge="1" parent="1" source="zEj0PHnnHHKdDakvJn7f-16" target="zEj0PHnnHHKdDakvJn7f-4">
          <mxGeometry width="50" height="50" relative="1" as="geometry">
            <mxPoint x="277" y="481" as="sourcePoint" />
            <mxPoint x="255.09" y="188" as="targetPoint" />
          </mxGeometry>
        </mxCell>
        <mxCell id="zEj0PHnnHHKdDakvJn7f-43" value="" style="endArrow=classic;html=1;rounded=0;fontSize=10;exitX=0.75;exitY=1;exitDx=0;exitDy=0;entryX=0.038;entryY=0.008;entryDx=0;entryDy=0;entryPerimeter=0;" edge="1" parent="1" source="zEj0PHnnHHKdDakvJn7f-4" target="zEj0PHnnHHKdDakvJn7f-16">
          <mxGeometry width="50" height="50" relative="1" as="geometry">
            <mxPoint x="363.9079999999999" y="611" as="sourcePoint" />
            <mxPoint x="69" y="609" as="targetPoint" />
          </mxGeometry>
        </mxCell>
        <mxCell id="zEj0PHnnHHKdDakvJn7f-48" value="Вернуть данные" style="text;html=1;align=center;verticalAlign=middle;resizable=0;points=[];autosize=1;strokeColor=none;fillColor=none;fontSize=10;rotation=-90;" vertex="1" parent="1">
          <mxGeometry x="224" y="256" width="95" height="24" as="geometry" />
        </mxCell>
        <mxCell id="zEj0PHnnHHKdDakvJn7f-49" value="Вернуть данные" style="text;html=1;align=center;verticalAlign=middle;resizable=0;points=[];autosize=1;strokeColor=none;fillColor=none;fontSize=10;rotation=-90;" vertex="1" parent="1">
          <mxGeometry x="315" y="252" width="95" height="24" as="geometry" />
        </mxCell>
        <mxCell id="zEj0PHnnHHKdDakvJn7f-50" value="Сохранить данные" style="text;html=1;align=center;verticalAlign=middle;resizable=0;points=[];autosize=1;strokeColor=none;fillColor=none;fontSize=10;rotation=0;" vertex="1" parent="1">
          <mxGeometry x="607" y="364" width="107" height="24" as="geometry" />
        </mxCell>
        <mxCell id="zEj0PHnnHHKdDakvJn7f-51" value="Сохранить данные" style="text;html=1;align=center;verticalAlign=middle;resizable=0;points=[];autosize=1;strokeColor=none;fillColor=none;fontSize=10;" vertex="1" parent="1">
          <mxGeometry x="479" y="356" width="107" height="24" as="geometry" />
        </mxCell>
        <mxCell id="zEj0PHnnHHKdDakvJn7f-53" value="Сохранить данные" style="text;html=1;align=center;verticalAlign=middle;resizable=0;points=[];autosize=1;strokeColor=none;fillColor=none;fontSize=10;rotation=-90;" vertex="1" parent="1">
          <mxGeometry x="169" y="345" width="107" height="24" as="geometry" />
        </mxCell>
        <mxCell id="zEj0PHnnHHKdDakvJn7f-54" value="Сохранить данные" style="text;html=1;align=center;verticalAlign=middle;resizable=0;points=[];autosize=1;strokeColor=none;fillColor=none;fontSize=10;rotation=-90;" vertex="1" parent="1">
          <mxGeometry x="261" y="388" width="107" height="24" as="geometry" />
        </mxCell>
        <mxCell id="zEj0PHnnHHKdDakvJn7f-56" value="Сохранить данные" style="text;html=1;align=center;verticalAlign=middle;resizable=0;points=[];autosize=1;strokeColor=none;fillColor=none;fontSize=10;" vertex="1" parent="1">
          <mxGeometry x="104" y="343" width="107" height="24" as="geometry" />
        </mxCell>
        <mxCell id="zEj0PHnnHHKdDakvJn7f-57" value="Сохранить данные" style="text;html=1;align=center;verticalAlign=middle;resizable=0;points=[];autosize=1;strokeColor=none;fillColor=none;fontSize=10;" vertex="1" parent="1">
          <mxGeometry x="-27.5" y="367" width="107" height="24" as="geometry" />
        </mxCell>
        <mxCell id="zEj0PHnnHHKdDakvJn7f-58" value="Сохранить данные" style="text;html=1;align=center;verticalAlign=middle;resizable=0;points=[];autosize=1;strokeColor=none;fillColor=none;fontSize=10;rotation=-90;" vertex="1" parent="1">
          <mxGeometry x="731" y="249" width="107" height="24" as="geometry" />
        </mxCell>
        <mxCell id="zEj0PHnnHHKdDakvJn7f-59" value="Сохранить данные" style="text;html=1;align=center;verticalAlign=middle;resizable=0;points=[];autosize=1;strokeColor=none;fillColor=none;fontSize=10;" vertex="1" parent="1">
          <mxGeometry x="-141" y="127" width="107" height="24" as="geometry" />
        </mxCell>
        <mxCell id="zEj0PHnnHHKdDakvJn7f-60" value="Активизировать" style="text;html=1;align=center;verticalAlign=middle;resizable=0;points=[];autosize=1;strokeColor=none;fillColor=none;fontSize=10;" vertex="1" parent="1">
          <mxGeometry x="157.5" y="62" width="95" height="24" as="geometry" />
        </mxCell>
        <mxCell id="zEj0PHnnHHKdDakvJn7f-61" value="Активизировать" style="text;html=1;align=center;verticalAlign=middle;resizable=0;points=[];autosize=1;strokeColor=none;fillColor=none;fontSize=10;rotation=-15;" vertex="1" parent="1">
          <mxGeometry x="252.5" y="81" width="95" height="24" as="geometry" />
        </mxCell>
        <mxCell id="zEj0PHnnHHKdDakvJn7f-63" value="Активизировать" style="text;html=1;align=center;verticalAlign=middle;resizable=0;points=[];autosize=1;strokeColor=none;fillColor=none;fontSize=10;" vertex="1" parent="1">
          <mxGeometry x="368" y="78" width="95" height="24" as="geometry" />
        </mxCell>
        <mxCell id="zEj0PHnnHHKdDakvJn7f-64" value="Активизировать" style="text;html=1;align=center;verticalAlign=middle;resizable=0;points=[];autosize=1;strokeColor=none;fillColor=none;fontSize=10;" vertex="1" parent="1">
          <mxGeometry x="534" y="57" width="95" height="24" as="geometry" />
        </mxCell>
        <mxCell id="zEj0PHnnHHKdDakvJn7f-65" value="Активизировать" style="text;html=1;align=center;verticalAlign=middle;resizable=0;points=[];autosize=1;strokeColor=none;fillColor=none;fontSize=10;rotation=30;" vertex="1" parent="1">
          <mxGeometry x="470" y="81" width="95" height="24" as="geometry" />
        </mxCell>
        <mxCell id="zEj0PHnnHHKdDakvJn7f-66" value="Активизировать" style="text;html=1;align=center;verticalAlign=middle;resizable=0;points=[];autosize=1;strokeColor=none;fillColor=none;fontSize=10;" vertex="1" parent="1">
          <mxGeometry x="433" y="180" width="95" height="24" as="geometry" />
        </mxCell>
        <mxCell id="zEj0PHnnHHKdDakvJn7f-67" value="Активизировать" style="text;html=1;align=center;verticalAlign=middle;resizable=0;points=[];autosize=1;strokeColor=none;fillColor=none;fontSize=10;" vertex="1" parent="1">
          <mxGeometry x="405" y="246" width="95" height="24" as="geometry" />
        </mxCell>
        <mxCell id="zEj0PHnnHHKdDakvJn7f-68" value="Активизировать" style="text;html=1;align=center;verticalAlign=middle;resizable=0;points=[];autosize=1;strokeColor=none;fillColor=none;fontSize=10;rotation=0;" vertex="1" parent="1">
          <mxGeometry x="-50" y="218" width="95" height="24" as="geometry" />
        </mxCell>
        <mxCell id="zEj0PHnnHHKdDakvJn7f-69" value="Активизировать" style="text;html=1;align=center;verticalAlign=middle;resizable=0;points=[];autosize=1;strokeColor=none;fillColor=none;fontSize=10;rotation=0;" vertex="1" parent="1">
          <mxGeometry x="126" y="214" width="95" height="24" as="geometry" />
        </mxCell>
        <mxCell id="zEj0PHnnHHKdDakvJn7f-70" value="" style="endArrow=classic;html=1;rounded=0;fontSize=10;entryX=0;entryY=0.75;entryDx=0;entryDy=0;exitX=-0.003;exitY=0.625;exitDx=0;exitDy=0;exitPerimeter=0;" edge="1" parent="1" source="zEj0PHnnHHKdDakvJn7f-16" target="zEj0PHnnHHKdDakvJn7f-27">
          <mxGeometry width="50" height="50" relative="1" as="geometry">
            <mxPoint x="-107" y="488" as="sourcePoint" />
            <mxPoint x="-57" y="438" as="targetPoint" />
            <Array as="points">
              <mxPoint x="-132" y="650" />
              <mxPoint x="-132" y="165" />
            </Array>
          </mxGeometry>
        </mxCell>
        <mxCell id="zEj0PHnnHHKdDakvJn7f-71" value="Вернуть данные" style="text;html=1;align=center;verticalAlign=middle;resizable=0;points=[];autosize=1;strokeColor=none;fillColor=none;fontSize=10;" vertex="1" parent="1">
          <mxGeometry x="-135" y="168" width="95" height="24" as="geometry" />
        </mxCell>
        <mxCell id="zEj0PHnnHHKdDakvJn7f-72" value="" style="endArrow=classic;html=1;rounded=0;fontSize=10;exitX=0;exitY=0.5;exitDx=0;exitDy=0;entryX=0.25;entryY=1;entryDx=0;entryDy=0;" edge="1" parent="1" source="zEj0PHnnHHKdDakvJn7f-16" target="zEj0PHnnHHKdDakvJn7f-29">
          <mxGeometry width="50" height="50" relative="1" as="geometry">
            <mxPoint x="373.9079999999999" y="621" as="sourcePoint" />
            <mxPoint x="381" y="228" as="targetPoint" />
          </mxGeometry>
        </mxCell>
        <mxCell id="zEj0PHnnHHKdDakvJn7f-73" value="" style="endArrow=classic;html=1;rounded=0;fontSize=10;exitX=0.696;exitY=0;exitDx=0;exitDy=0;entryX=0.25;entryY=1;entryDx=0;entryDy=0;exitPerimeter=0;" edge="1" parent="1" source="zEj0PHnnHHKdDakvJn7f-16" target="zEj0PHnnHHKdDakvJn7f-31">
          <mxGeometry width="50" height="50" relative="1" as="geometry">
            <mxPoint x="383.9079999999999" y="631" as="sourcePoint" />
            <mxPoint x="391" y="238" as="targetPoint" />
          </mxGeometry>
        </mxCell>
        <mxCell id="zEj0PHnnHHKdDakvJn7f-74" value="Вернуть данные" style="text;html=1;align=center;verticalAlign=middle;resizable=0;points=[];autosize=1;strokeColor=none;fillColor=none;fontSize=10;" vertex="1" parent="1">
          <mxGeometry x="-76" y="419" width="95" height="24" as="geometry" />
        </mxCell>
        <mxCell id="zEj0PHnnHHKdDakvJn7f-75" value="Вернуть данные" style="text;html=1;align=center;verticalAlign=middle;resizable=0;points=[];autosize=1;strokeColor=none;fillColor=none;fontSize=10;" vertex="1" parent="1">
          <mxGeometry x="376.5" y="416" width="95" height="24" as="geometry" />
        </mxCell>
      </root>
    </mxGraphModel>
  </diagram>
</mxfile>
